<svg width="419" height="388" viewBox="0 0 419 388" fill="none" xmlns="http://www.w3.org/2000/svg">
<path d="M29.0799 249.08C4.65278 110.547 26.3872 79.507 164.92 55.0799C303.453 30.6528 334.493 52.3873 358.92 190.92C383.347 329.453 361.613 360.493 223.08 384.92C84.547 409.347 53.507 387.613 29.0799 249.08Z" fill="#F7F7F7"/>
<path d="M60.0799 223.08C35.6528 84.547 57.3872 53.507 195.92 29.0799C334.453 4.65283 365.493 26.3873 389.92 164.92C414.347 303.453 392.613 334.493 254.08 358.92C115.547 383.347 84.507 361.613 60.0799 223.08Z" fill="#FFDF68"/>
<path d="M48.9726 58.6379C47.8324 59.018 46.8008 60.1691 46.5619 61.3311C46.0949 63.5681 48.3319 65.8051 50.569 65.3382C52.2522 64.9907 53.5553 63.2749 53.3924 61.6568C53.2729 60.5166 52.4151 59.3438 51.3291 58.8117C50.6667 58.4968 49.6459 58.4207 48.9726 58.6379Z" fill="#F8974E"/>
<path d="M62.8726 58.6379C61.2329 59.1809 60.1252 60.9835 60.4619 62.569C60.7334 63.8613 61.9387 65.0666 63.2201 65.3381C65.3269 65.7834 67.5096 63.7961 67.2924 61.6568C67.173 60.5166 66.3151 59.3438 65.2291 58.8116C64.5667 58.4967 63.5459 58.4207 62.8726 58.6379Z" fill="#F8974E"/>
<path d="M76.7726 58.6379C75.6324 59.018 74.6007 60.1691 74.3618 61.3311C73.8949 63.5681 76.1319 65.8051 78.369 65.3382C80.0522 64.9907 81.3553 63.2749 81.1924 61.6568C81.0729 60.5166 80.215 59.3438 79.1291 58.8117C78.4667 58.4968 77.4459 58.4207 76.7726 58.6379Z" fill="#F8974E"/>
<path d="M90.6726 58.6379C89.5324 59.018 88.5008 60.1691 88.2619 61.3311C87.7949 63.5681 90.0319 65.8051 92.269 65.3382C93.9522 64.9907 95.2553 63.2749 95.0924 61.6568C94.973 60.5166 94.1151 59.3438 93.0291 58.8117C92.3667 58.4968 91.3459 58.4207 90.6726 58.6379Z" fill="#F8974E"/>
<path d="M104.573 58.6379C103.432 59.018 102.401 60.1691 102.162 61.3311C101.695 63.5681 103.932 65.8051 106.169 65.3382C107.852 64.9907 109.155 63.2749 108.992 61.6568C108.873 60.5166 108.015 59.3438 106.929 58.8117C106.267 58.4968 105.246 58.4207 104.573 58.6379Z" fill="#F8974E"/>
<path d="M118.473 58.6379C117.332 59.018 116.301 60.1691 116.062 61.3311C115.595 63.5681 117.832 65.8051 120.069 65.3382C121.752 64.9907 123.055 63.2749 122.892 61.6568C122.773 60.5166 121.915 59.3438 120.829 58.8117C120.167 58.4968 119.146 58.4207 118.473 58.6379Z" fill="#F8974E"/>
<path d="M132.373 58.6379C131.232 59.018 130.201 60.1691 129.962 61.3311C129.495 63.5681 131.732 65.8051 133.969 65.3382C135.652 64.9907 136.955 63.2749 136.792 61.6568C136.673 60.5166 135.815 59.3438 134.729 58.8117C134.067 58.4968 133.046 58.4207 132.373 58.6379Z" fill="#F8974E"/>
<path d="M146.273 58.6379C145.132 59.018 144.101 60.1691 143.862 61.3311C143.395 63.5681 145.632 65.8051 147.869 65.3382C149.552 64.9907 150.855 63.2749 150.692 61.6568C150.573 60.5166 149.715 59.3438 148.629 58.8117C147.967 58.4968 146.946 58.4207 146.273 58.6379Z" fill="#F8974E"/>
<path d="M160.173 58.6379C159.032 59.018 158.001 60.1691 157.762 61.331C157.49 62.6016 158.109 63.9807 159.304 64.7952C160.466 65.5988 161.791 65.6096 162.963 64.8278C164.886 63.5463 165.146 61.1573 163.539 59.561C162.616 58.6271 161.291 58.2687 160.173 58.6379Z" fill="#F8974E"/>
<path d="M174.073 58.6379C172.932 59.018 171.901 60.1691 171.662 61.331C171.39 62.6016 172.009 63.9807 173.204 64.7952C174.366 65.5988 175.691 65.6096 176.864 64.8278C178.786 63.5463 179.046 61.1573 177.439 59.561C176.516 58.6271 175.191 58.2687 174.073 58.6379Z" fill="#F8974E"/>
<path d="M48.9726 72.538C47.8324 72.918 46.8008 74.0691 46.5619 75.2311C46.0949 77.4681 48.3319 79.7051 50.569 79.2382C52.2522 78.8907 53.5553 77.1749 53.3924 75.5569C53.2729 74.4166 52.4151 73.2438 51.3291 72.7117C50.6667 72.3968 49.6459 72.3208 48.9726 72.538Z" fill="#F8974E"/>
<path d="M62.8726 72.5379C61.2329 73.0809 60.1252 74.8835 60.4619 76.469C60.7334 77.7613 61.9387 78.9667 63.2201 79.2382C65.3269 79.6834 67.5096 77.6961 67.2924 75.5568C67.173 74.4166 66.3151 73.2438 65.2291 72.7117C64.5667 72.3968 63.5459 72.3207 62.8726 72.5379Z" fill="#F8974E"/>
<path d="M76.7726 72.538C75.6324 72.918 74.6007 74.0691 74.3618 75.2311C73.8949 77.4681 76.1319 79.7051 78.369 79.2382C80.0522 78.8907 81.3553 77.1749 81.1924 75.5569C81.0729 74.4166 80.215 73.2438 79.1291 72.7117C78.4667 72.3968 77.4459 72.3208 76.7726 72.538Z" fill="#F8974E"/>
<path d="M90.6726 72.538C89.5324 72.918 88.5008 74.0691 88.2619 75.2311C87.7949 77.4681 90.0319 79.7051 92.269 79.2382C93.9522 78.8907 95.2553 77.1749 95.0924 75.5569C94.973 74.4166 94.1151 73.2438 93.0291 72.7117C92.3667 72.3968 91.3459 72.3208 90.6726 72.538Z" fill="#F8974E"/>
<path d="M104.573 72.538C103.432 72.918 102.401 74.0691 102.162 75.2311C101.695 77.4681 103.932 79.7051 106.169 79.2382C107.852 78.8907 109.155 77.1749 108.992 75.5569C108.873 74.4166 108.015 73.2438 106.929 72.7117C106.267 72.3968 105.246 72.3208 104.573 72.538Z" fill="#F8974E"/>
<path d="M118.473 72.538C117.332 72.918 116.301 74.0691 116.062 75.2311C115.595 77.4681 117.832 79.7051 120.069 79.2382C121.752 78.8907 123.055 77.1749 122.892 75.5569C122.773 74.4166 121.915 73.2438 120.829 72.7117C120.167 72.3968 119.146 72.3208 118.473 72.538Z" fill="#F8974E"/>
<path d="M132.373 72.538C131.232 72.918 130.201 74.0691 129.962 75.2311C129.495 77.4681 131.732 79.7051 133.969 79.2382C135.652 78.8907 136.955 77.1749 136.792 75.5569C136.673 74.4166 135.815 73.2438 134.729 72.7117C134.067 72.3968 133.046 72.3208 132.373 72.538Z" fill="#F8974E"/>
<path d="M146.273 72.538C145.132 72.918 144.101 74.0691 143.862 75.2311C143.395 77.4681 145.632 79.7051 147.869 79.2382C149.552 78.8907 150.855 77.1749 150.692 75.5569C150.573 74.4166 149.715 73.2438 148.629 72.7117C147.967 72.3968 146.946 72.3208 146.273 72.538Z" fill="#F8974E"/>
<path d="M160.173 72.5379C159.032 72.918 158.001 74.0691 157.762 75.2311C157.49 76.5016 158.109 77.8807 159.304 78.6952C160.466 79.4988 161.791 79.5097 162.963 78.7278C164.886 77.4464 165.146 75.0573 163.539 73.461C162.616 72.5271 161.291 72.1687 160.173 72.5379Z" fill="#F8974E"/>
<path d="M174.073 72.5379C172.932 72.918 171.901 74.0691 171.662 75.2311C171.39 76.5016 172.009 77.8807 173.204 78.6952C174.366 79.4988 175.691 79.5097 176.864 78.7278C178.786 77.4464 179.046 75.0573 177.439 73.461C176.516 72.5271 175.191 72.1687 174.073 72.5379Z" fill="#F8974E"/>
<path d="M48.9726 86.4379C47.8324 86.8179 46.8008 87.969 46.5619 89.131C46.0949 91.368 48.3319 93.605 50.569 93.1381C52.2522 92.7906 53.5553 91.0748 53.3924 89.4568C53.2729 88.3165 52.4151 87.1437 51.3291 86.6116C50.6667 86.2967 49.6459 86.2207 48.9726 86.4379Z" fill="#F8974E"/>
<path d="M62.8727 86.4379C61.7324 86.8179 60.7008 87.969 60.4619 89.131C59.9949 91.368 62.232 93.605 64.469 93.1381C66.1522 92.7906 67.4553 91.0748 67.2924 89.4568C67.173 88.3165 66.3151 87.1437 65.2291 86.6116C64.5667 86.2967 63.5459 86.2207 62.8727 86.4379Z" fill="#F8974E"/>
<path d="M76.7726 86.4379C75.6324 86.8179 74.6007 87.969 74.3618 89.131C73.8949 91.368 76.1319 93.605 78.369 93.1381C80.0522 92.7906 81.3553 91.0748 81.1924 89.4568C81.0729 88.3165 80.215 87.1437 79.1291 86.6116C78.4667 86.2967 77.4459 86.2207 76.7726 86.4379Z" fill="#F8974E"/>
<path d="M90.6726 86.4379C89.5324 86.8179 88.5008 87.969 88.2619 89.131C87.7949 91.368 90.0319 93.605 92.269 93.1381C93.9522 92.7906 95.2553 91.0748 95.0924 89.4568C94.973 88.3165 94.1151 87.1437 93.0291 86.6116C92.3667 86.2967 91.3459 86.2207 90.6726 86.4379Z" fill="#F8974E"/>
<path d="M104.573 86.4379C103.432 86.8179 102.401 87.969 102.162 89.131C101.695 91.368 103.932 93.605 106.169 93.1381C107.852 92.7906 109.155 91.0748 108.992 89.4568C108.873 88.3165 108.015 87.1437 106.929 86.6116C106.267 86.2967 105.246 86.2207 104.573 86.4379Z" fill="#F8974E"/>
<path d="M118.473 86.4379C117.332 86.8179 116.301 87.969 116.062 89.131C115.595 91.368 117.832 93.605 120.069 93.1381C121.752 92.7906 123.055 91.0748 122.892 89.4568C122.773 88.3165 121.915 87.1437 120.829 86.6116C120.167 86.2967 119.146 86.2207 118.473 86.4379Z" fill="#F8974E"/>
<path d="M132.373 86.4379C131.232 86.8179 130.201 87.969 129.962 89.131C129.495 91.368 131.732 93.605 133.969 93.1381C135.652 92.7906 136.955 91.0748 136.792 89.4568C136.673 88.3165 135.815 87.1437 134.729 86.6116C134.067 86.2967 133.046 86.2207 132.373 86.4379Z" fill="#F8974E"/>
<path d="M146.273 86.4379C145.132 86.8179 144.101 87.969 143.862 89.131C143.395 91.368 145.632 93.605 147.869 93.1381C149.552 92.7906 150.855 91.0748 150.692 89.4568C150.573 88.3165 149.715 87.1437 148.629 86.6116C147.967 86.2967 146.946 86.2207 146.273 86.4379Z" fill="#F8974E"/>
<path d="M160.173 86.4379C159.032 86.8179 158.001 87.969 157.762 89.131C157.295 91.368 159.532 93.605 161.769 93.1381C163.452 92.7906 164.755 91.0748 164.592 89.4568C164.473 88.3165 163.615 87.1437 162.529 86.6116C161.867 86.2967 160.846 86.2207 160.173 86.4379Z" fill="#F8974E"/>
<path d="M174.073 86.4379C172.932 86.8179 171.901 87.969 171.662 89.131C171.195 91.368 173.432 93.605 175.669 93.1381C177.352 92.7906 178.655 91.0748 178.492 89.4568C178.373 88.3165 177.515 87.1437 176.429 86.6116C175.767 86.2967 174.746 86.2207 174.073 86.4379Z" fill="#F8974E"/>
<path d="M48.9726 100.338C47.8324 100.718 46.8008 101.869 46.5619 103.031C46.0949 105.268 48.3319 107.505 50.569 107.038C52.2522 106.691 53.5553 104.975 53.3924 103.357C53.2729 102.217 52.4151 101.044 51.3291 100.512C50.6667 100.197 49.6459 100.121 48.9726 100.338Z" fill="#F8974E"/>
<path d="M62.8727 100.338C61.7324 100.718 60.7008 101.869 60.4619 103.031C59.9949 105.268 62.232 107.505 64.469 107.038C66.1522 106.691 67.4553 104.975 67.2924 103.357C67.173 102.217 66.3151 101.044 65.2291 100.512C64.5667 100.197 63.5459 100.121 62.8727 100.338Z" fill="#F8974E"/>
<path d="M76.7726 100.338C75.6324 100.718 74.6007 101.869 74.3618 103.031C73.8949 105.268 76.1319 107.505 78.369 107.038C80.0522 106.691 81.3553 104.975 81.1924 103.357C81.0729 102.217 80.215 101.044 79.1291 100.512C78.4667 100.197 77.4459 100.121 76.7726 100.338Z" fill="#F8974E"/>
<path d="M90.6726 100.338C89.5324 100.718 88.5008 101.869 88.2619 103.031C87.7949 105.268 90.0319 107.505 92.269 107.038C93.9522 106.691 95.2553 104.975 95.0924 103.357C94.973 102.217 94.1151 101.044 93.0291 100.512C92.3667 100.197 91.3459 100.121 90.6726 100.338Z" fill="#F8974E"/>
<path d="M104.573 100.338C103.432 100.718 102.401 101.869 102.162 103.031C101.695 105.268 103.932 107.505 106.169 107.038C107.852 106.691 109.155 104.975 108.992 103.357C108.873 102.217 108.015 101.044 106.929 100.512C106.267 100.197 105.246 100.121 104.573 100.338Z" fill="#F8974E"/>
<path d="M118.473 100.338C117.332 100.718 116.301 101.869 116.062 103.031C115.595 105.268 117.832 107.505 120.069 107.038C121.752 106.691 123.055 104.975 122.892 103.357C122.773 102.217 121.915 101.044 120.829 100.512C120.167 100.197 119.146 100.121 118.473 100.338Z" fill="#F8974E"/>
<path d="M132.373 100.338C131.232 100.718 130.201 101.869 129.962 103.031C129.495 105.268 131.732 107.505 133.969 107.038C135.652 106.691 136.955 104.975 136.792 103.357C136.673 102.217 135.815 101.044 134.729 100.512C134.067 100.197 133.046 100.121 132.373 100.338Z" fill="#F8974E"/>
<path d="M146.273 100.338C145.132 100.718 144.101 101.869 143.862 103.031C143.395 105.268 145.632 107.505 147.869 107.038C149.552 106.691 150.855 104.975 150.692 103.357C150.573 102.217 149.715 101.044 148.629 100.512C147.967 100.197 146.946 100.121 146.273 100.338Z" fill="#F8974E"/>
<path d="M160.173 100.338C159.032 100.718 158.001 101.869 157.762 103.031C157.295 105.268 159.532 107.505 161.769 107.038C163.452 106.691 164.755 104.975 164.592 103.357C164.473 102.217 163.615 101.044 162.529 100.512C161.867 100.197 160.846 100.121 160.173 100.338Z" fill="#F8974E"/>
<path d="M174.073 100.338C172.932 100.718 171.901 101.869 171.662 103.031C171.195 105.268 173.432 107.505 175.669 107.038C177.352 106.691 178.655 104.975 178.492 103.357C178.373 102.217 177.515 101.044 176.429 100.512C175.767 100.197 174.746 100.121 174.073 100.338Z" fill="#F8974E"/>
<path d="M48.9726 114.238C47.8324 114.618 46.8008 115.769 46.5619 116.931C46.0949 119.168 48.3319 121.405 50.569 120.938C52.2522 120.591 53.5553 118.875 53.3924 117.257C53.2729 116.117 52.4151 114.944 51.3291 114.412C50.6667 114.097 49.6459 114.021 48.9726 114.238Z" fill="#F8974E"/>
<path d="M62.8727 114.238C61.7324 114.618 60.7008 115.769 60.4619 116.931C59.9949 119.168 62.232 121.405 64.469 120.938C66.1522 120.591 67.4553 118.875 67.2924 117.257C67.173 116.117 66.3151 114.944 65.2291 114.412C64.5667 114.097 63.5459 114.021 62.8727 114.238Z" fill="#F8974E"/>
<path d="M76.7726 114.238C75.6324 114.618 74.6007 115.769 74.3618 116.931C73.8949 119.168 76.1319 121.405 78.369 120.938C80.0522 120.591 81.3553 118.875 81.1924 117.257C81.0729 116.117 80.215 114.944 79.1291 114.412C78.4667 114.097 77.4459 114.021 76.7726 114.238Z" fill="#F8974E"/>
<path d="M90.6726 114.238C89.5324 114.618 88.5008 115.769 88.2619 116.931C87.7949 119.168 90.0319 121.405 92.269 120.938C93.9522 120.591 95.2553 118.875 95.0924 117.257C94.973 116.117 94.1151 114.944 93.0291 114.412C92.3667 114.097 91.3459 114.021 90.6726 114.238Z" fill="#F8974E"/>
<path d="M104.573 114.238C103.432 114.618 102.401 115.769 102.162 116.931C101.695 119.168 103.932 121.405 106.169 120.938C107.852 120.591 109.155 118.875 108.992 117.257C108.873 116.117 108.015 114.944 106.929 114.412C106.267 114.097 105.246 114.021 104.573 114.238Z" fill="#F8974E"/>
<path d="M118.473 114.238C117.332 114.618 116.301 115.769 116.062 116.931C115.595 119.168 117.832 121.405 120.069 120.938C121.752 120.591 123.055 118.875 122.892 117.257C122.773 116.117 121.915 114.944 120.829 114.412C120.167 114.097 119.146 114.021 118.473 114.238Z" fill="#F8974E"/>
<path d="M132.373 114.238C131.232 114.618 130.201 115.769 129.962 116.931C129.495 119.168 131.732 121.405 133.969 120.938C135.652 120.591 136.955 118.875 136.792 117.257C136.673 116.117 135.815 114.944 134.729 114.412C134.067 114.097 133.046 114.021 132.373 114.238Z" fill="#F8974E"/>
<path d="M146.273 114.238C145.132 114.618 144.101 115.769 143.862 116.931C143.395 119.168 145.632 121.405 147.869 120.938C149.552 120.591 150.855 118.875 150.692 117.257C150.573 116.117 149.715 114.944 148.629 114.412C147.967 114.097 146.946 114.021 146.273 114.238Z" fill="#F8974E"/>
<path d="M160.173 114.238C159.032 114.618 158.001 115.769 157.762 116.931C157.295 119.168 159.532 121.405 161.769 120.938C163.452 120.591 164.755 118.875 164.592 117.257C164.473 116.117 163.615 114.944 162.529 114.412C161.867 114.097 160.846 114.021 160.173 114.238Z" fill="#F8974E"/>
<path d="M174.073 114.238C172.932 114.618 171.901 115.769 171.662 116.931C171.195 119.168 173.432 121.405 175.669 120.938C177.352 120.591 178.655 118.875 178.492 117.257C178.373 116.117 177.515 114.944 176.429 114.412C175.767 114.097 174.746 114.021 174.073 114.238Z" fill="#F8974E"/>
<path d="M48.9726 128.138C47.8324 128.518 46.8008 129.669 46.5619 130.831C46.0949 133.068 48.3319 135.305 50.569 134.838C52.2522 134.491 53.5553 132.775 53.3924 131.157C53.2729 130.017 52.4151 128.844 51.3291 128.312C50.6667 127.997 49.6459 127.921 48.9726 128.138Z" fill="#F8974E"/>
<path d="M62.8727 128.138C61.7324 128.518 60.7008 129.669 60.4619 130.831C59.9949 133.068 62.232 135.305 64.469 134.838C66.1522 134.491 67.4553 132.775 67.2924 131.157C67.173 130.017 66.3151 128.844 65.2291 128.312C64.5667 127.997 63.5459 127.921 62.8727 128.138Z" fill="#F8974E"/>
<path d="M76.7726 128.138C75.6324 128.518 74.6007 129.669 74.3618 130.831C73.8949 133.068 76.1319 135.305 78.369 134.838C80.0522 134.491 81.3553 132.775 81.1924 131.157C81.0729 130.017 80.215 128.844 79.1291 128.312C78.4667 127.997 77.4459 127.921 76.7726 128.138Z" fill="#F8974E"/>
<path d="M90.6726 128.138C89.5324 128.518 88.5008 129.669 88.2619 130.831C87.7949 133.068 90.0319 135.305 92.269 134.838C93.9522 134.491 95.2553 132.775 95.0924 131.157C94.973 130.017 94.1151 128.844 93.0291 128.312C92.3667 127.997 91.3459 127.921 90.6726 128.138Z" fill="#F8974E"/>
<path d="M104.573 128.138C103.432 128.518 102.401 129.669 102.162 130.831C101.695 133.068 103.932 135.305 106.169 134.838C107.852 134.491 109.155 132.775 108.992 131.157C108.873 130.017 108.015 128.844 106.929 128.312C106.267 127.997 105.246 127.921 104.573 128.138Z" fill="#F8974E"/>
<path d="M118.473 128.138C117.332 128.518 116.301 129.669 116.062 130.831C115.595 133.068 117.832 135.305 120.069 134.838C121.752 134.491 123.055 132.775 122.892 131.157C122.773 130.017 121.915 128.844 120.829 128.312C120.167 127.997 119.146 127.921 118.473 128.138Z" fill="#F8974E"/>
<path d="M132.373 128.138C131.232 128.518 130.201 129.669 129.962 130.831C129.495 133.068 131.732 135.305 133.969 134.838C135.652 134.491 136.955 132.775 136.792 131.157C136.673 130.017 135.815 128.844 134.729 128.312C134.067 127.997 133.046 127.921 132.373 128.138Z" fill="#F8974E"/>
<path d="M146.273 128.138C145.132 128.518 144.101 129.669 143.862 130.831C143.395 133.068 145.632 135.305 147.869 134.838C149.552 134.491 150.855 132.775 150.692 131.157C150.573 130.017 149.715 128.844 148.629 128.312C147.967 127.997 146.946 127.921 146.273 128.138Z" fill="#F8974E"/>
<path d="M160.173 128.138C159.032 128.518 158.001 129.669 157.762 130.831C157.295 133.068 159.532 135.305 161.769 134.838C163.452 134.491 164.755 132.775 164.592 131.157C164.473 130.017 163.615 128.844 162.529 128.312C161.867 127.997 160.846 127.921 160.173 128.138Z" fill="#F8974E"/>
<path d="M174.073 128.138C172.932 128.518 171.901 129.669 171.662 130.831C171.195 133.068 173.432 135.305 175.669 134.838C177.352 134.491 178.655 132.775 178.492 131.157C178.373 130.017 177.515 128.844 176.429 128.312C175.767 127.997 174.746 127.921 174.073 128.138Z" fill="#F8974E"/>
<path d="M48.9726 142.038C47.8324 142.418 46.8008 143.569 46.5619 144.731C46.0949 146.968 48.3319 149.205 50.569 148.738C52.2522 148.391 53.5553 146.675 53.3924 145.057C53.2729 143.917 52.4151 142.744 51.3291 142.212C50.6667 141.897 49.6459 141.821 48.9726 142.038Z" fill="#F8974E"/>
<path d="M62.8727 142.038C61.7324 142.418 60.7008 143.569 60.4619 144.731C59.9949 146.968 62.232 149.205 64.469 148.738C66.1522 148.391 67.4553 146.675 67.2924 145.057C67.173 143.917 66.3151 142.744 65.2291 142.212C64.5667 141.897 63.5459 141.821 62.8727 142.038Z" fill="#F8974E"/>
<path d="M76.7727 142.038C75.6324 142.418 74.6008 143.569 74.3619 144.731C74.0904 146.002 74.7094 147.381 75.9039 148.195C77.0659 148.999 78.3907 149.01 79.5635 148.228C81.4856 146.946 81.7463 144.557 80.1391 142.961C79.216 142.027 77.8912 141.669 76.7727 142.038Z" fill="#F8974E"/>
<path d="M90.6726 142.038C89.5324 142.418 88.5008 143.569 88.2618 144.731C87.9904 146.002 88.6093 147.381 89.8039 148.195C90.9658 148.999 92.2907 149.01 93.4635 148.228C95.3856 146.946 95.6462 144.557 94.039 142.961C93.116 142.027 91.7911 141.669 90.6726 142.038Z" fill="#F8974E"/>
<path d="M104.573 142.038C102.933 142.581 101.825 144.384 102.162 145.969C102.433 147.261 103.639 148.467 104.931 148.738C107.027 149.183 109.21 147.196 108.992 145.057C108.873 143.917 108.015 142.744 106.929 142.212C106.267 141.897 105.246 141.821 104.573 142.038Z" fill="#F8974E"/>
<path d="M118.473 142.038C116.833 142.581 115.725 144.384 116.062 145.969C116.333 147.261 117.539 148.467 118.831 148.738C120.927 149.183 123.11 147.196 122.892 145.057C122.773 143.917 121.915 142.744 120.829 142.212C120.167 141.897 119.146 141.821 118.473 142.038Z" fill="#F8974E"/>
<path d="M132.373 142.038C130.733 142.581 129.625 144.384 129.962 145.969C130.233 147.261 131.439 148.467 132.731 148.738C134.827 149.183 137.01 147.196 136.792 145.057C136.673 143.917 135.815 142.744 134.729 142.212C134.067 141.897 133.046 141.821 132.373 142.038Z" fill="#F8974E"/>
<path d="M146.273 142.038C144.633 142.581 143.525 144.384 143.862 145.969C144.133 147.261 145.339 148.467 146.631 148.738C148.727 149.183 150.91 147.196 150.692 145.057C150.573 143.917 149.715 142.744 148.629 142.212C147.967 141.897 146.946 141.821 146.273 142.038Z" fill="#F8974E"/>
<path d="M160.173 142.038C159.032 142.418 158.001 143.569 157.762 144.731C157.295 146.968 159.532 149.205 161.769 148.738C163.452 148.391 164.755 146.675 164.592 145.057C164.473 143.917 163.615 142.744 162.529 142.212C161.867 141.897 160.846 141.821 160.173 142.038Z" fill="#F8974E"/>
<path d="M174.073 142.038C172.932 142.418 171.901 143.569 171.662 144.731C171.195 146.968 173.432 149.205 175.669 148.738C177.352 148.391 178.655 146.675 178.492 145.057C178.373 143.917 177.515 142.744 176.429 142.212C175.767 141.897 174.746 141.821 174.073 142.038Z" fill="#F8974E"/>
<path d="M48.9726 155.938C47.8324 156.318 46.8008 157.469 46.5619 158.631C46.0949 160.868 48.3319 163.105 50.569 162.638C52.2522 162.291 53.5553 160.575 53.3924 158.957C53.2729 157.817 52.4151 156.644 51.3291 156.112C50.6667 155.797 49.6459 155.721 48.9726 155.938Z" fill="#F8974E"/>
<path d="M62.8727 155.938C61.7324 156.318 60.7008 157.469 60.4619 158.631C59.9949 160.868 62.232 163.105 64.469 162.638C66.1522 162.291 67.4553 160.575 67.2924 158.957C67.173 157.817 66.3151 156.644 65.2291 156.112C64.5667 155.797 63.5459 155.721 62.8727 155.938Z" fill="#F8974E"/>
<path d="M76.7727 155.938C75.6324 156.318 74.6008 157.469 74.3619 158.631C74.0904 159.902 74.7094 161.281 75.9039 162.095C77.0659 162.899 78.3907 162.91 79.5635 162.128C81.4856 160.846 81.7463 158.457 80.1391 156.861C79.216 155.927 77.8912 155.569 76.7727 155.938Z" fill="#F8974E"/>
<path d="M90.6726 155.938C89.5324 156.318 88.5008 157.469 88.2618 158.631C87.9904 159.902 88.6093 161.281 89.8039 162.095C90.9658 162.899 92.2907 162.91 93.4635 162.128C95.3856 160.846 95.6462 158.457 94.039 156.861C93.116 155.927 91.7911 155.569 90.6726 155.938Z" fill="#F8974E"/>
<path d="M104.573 155.938C102.933 156.481 101.825 158.284 102.162 159.869C102.433 161.161 103.639 162.367 104.931 162.638C107.027 163.083 109.21 161.096 108.992 158.957C108.873 157.817 108.015 156.644 106.929 156.112C106.267 155.797 105.246 155.721 104.573 155.938Z" fill="#F8974E"/>
<path d="M118.473 155.938C116.833 156.481 115.725 158.284 116.062 159.869C116.333 161.161 117.539 162.367 118.831 162.638C120.927 163.083 123.11 161.096 122.892 158.957C122.773 157.817 121.915 156.644 120.829 156.112C120.167 155.797 119.146 155.721 118.473 155.938Z" fill="#F8974E"/>
<path d="M132.373 155.938C130.733 156.481 129.625 158.284 129.962 159.869C130.233 161.161 131.439 162.367 132.731 162.638C134.827 163.083 137.01 161.096 136.792 158.957C136.673 157.817 135.815 156.644 134.729 156.112C134.067 155.797 133.046 155.721 132.373 155.938Z" fill="#F8974E"/>
<path d="M146.273 155.938C144.633 156.481 143.525 158.284 143.862 159.869C144.133 161.161 145.339 162.367 146.631 162.638C148.727 163.083 150.91 161.096 150.692 158.957C150.573 157.817 149.715 156.644 148.629 156.112C147.967 155.797 146.946 155.721 146.273 155.938Z" fill="#F8974E"/>
<path d="M160.173 155.938C159.032 156.318 158.001 157.469 157.762 158.631C157.295 160.868 159.532 163.105 161.769 162.638C163.452 162.291 164.755 160.575 164.592 158.957C164.473 157.817 163.615 156.644 162.529 156.112C161.867 155.797 160.846 155.721 160.173 155.938Z" fill="#F8974E"/>
<path d="M174.073 155.938C172.932 156.318 171.901 157.469 171.662 158.631C171.195 160.868 173.432 163.105 175.669 162.638C177.352 162.291 178.655 160.575 178.492 158.957C178.373 157.817 177.515 156.644 176.429 156.112C175.767 155.797 174.746 155.721 174.073 155.938Z" fill="#F8974E"/>
<path d="M48.9726 169.838C47.8324 170.218 46.8008 171.369 46.5619 172.531C46.0949 174.768 48.3319 177.005 50.569 176.538C52.2522 176.191 53.5553 174.475 53.3924 172.857C53.2729 171.717 52.4151 170.544 51.3291 170.012C50.6667 169.697 49.6459 169.621 48.9726 169.838Z" fill="#F8974E"/>
<path d="M62.8727 169.838C61.7324 170.218 60.7008 171.369 60.4619 172.531C59.9949 174.768 62.232 177.005 64.469 176.538C66.1522 176.191 67.4553 174.475 67.2924 172.857C67.173 171.717 66.3151 170.544 65.2291 170.012C64.5667 169.697 63.5459 169.621 62.8727 169.838Z" fill="#F8974E"/>
<path d="M76.7727 169.838C75.6324 170.218 74.6008 171.369 74.3619 172.531C74.0904 173.802 74.7094 175.181 75.9039 175.995C77.0659 176.799 78.3907 176.81 79.5635 176.028C81.4856 174.746 81.7463 172.357 80.1391 170.761C79.216 169.827 77.8912 169.469 76.7727 169.838Z" fill="#F8974E"/>
<path d="M90.6726 169.838C89.5324 170.218 88.5008 171.369 88.2618 172.531C87.9904 173.802 88.6093 175.181 89.8039 175.995C90.9658 176.799 92.2907 176.81 93.4635 176.028C95.3856 174.746 95.6462 172.357 94.039 170.761C93.116 169.827 91.7911 169.469 90.6726 169.838Z" fill="#F8974E"/>
<path d="M104.573 169.838C103.432 170.218 102.401 171.369 102.162 172.531C101.695 174.768 103.932 177.005 106.169 176.538C107.852 176.191 109.155 174.475 108.992 172.857C108.873 171.717 108.015 170.544 106.929 170.012C106.267 169.697 105.246 169.621 104.573 169.838Z" fill="#F8974E"/>
<path d="M118.473 169.838C117.332 170.218 116.301 171.369 116.062 172.531C115.595 174.768 117.832 177.005 120.069 176.538C121.752 176.191 123.055 174.475 122.892 172.857C122.773 171.717 121.915 170.544 120.829 170.012C120.167 169.697 119.146 169.621 118.473 169.838Z" fill="#F8974E"/>
<path d="M132.373 169.838C131.232 170.218 130.201 171.369 129.962 172.531C129.495 174.768 131.732 177.005 133.969 176.538C135.652 176.191 136.955 174.475 136.792 172.857C136.673 171.717 135.815 170.544 134.729 170.012C134.067 169.697 133.046 169.621 132.373 169.838Z" fill="#F8974E"/>
<path d="M146.273 169.838C145.132 170.218 144.101 171.369 143.862 172.531C143.395 174.768 145.632 177.005 147.869 176.538C149.552 176.191 150.855 174.475 150.692 172.857C150.573 171.717 149.715 170.544 148.629 170.012C147.967 169.697 146.946 169.621 146.273 169.838Z" fill="#F8974E"/>
<path d="M160.173 169.838C159.032 170.218 158.001 171.369 157.762 172.531C157.295 174.768 159.532 177.005 161.769 176.538C163.452 176.191 164.755 174.475 164.592 172.857C164.473 171.717 163.615 170.544 162.529 170.012C161.867 169.697 160.846 169.621 160.173 169.838Z" fill="#F8974E"/>
<path d="M174.073 169.838C172.932 170.218 171.901 171.369 171.662 172.531C171.195 174.768 173.432 177.005 175.669 176.538C177.352 176.191 178.655 174.475 178.492 172.857C178.373 171.717 177.515 170.544 176.429 170.012C175.767 169.697 174.746 169.621 174.073 169.838Z" fill="#F8974E"/>
<path d="M48.9726 183.738C47.8324 184.118 46.8008 185.269 46.5619 186.431C46.0949 188.668 48.3319 190.905 50.569 190.438C52.2522 190.091 53.5553 188.375 53.3924 186.757C53.2729 185.617 52.4151 184.444 51.3291 183.912C50.6667 183.597 49.6459 183.521 48.9726 183.738Z" fill="#F8974E"/>
<path d="M62.8727 183.738C61.7324 184.118 60.7008 185.269 60.4619 186.431C59.9949 188.668 62.232 190.905 64.469 190.438C66.1522 190.091 67.4553 188.375 67.2924 186.757C67.173 185.617 66.3151 184.444 65.2291 183.912C64.5667 183.597 63.5459 183.521 62.8727 183.738Z" fill="#F8974E"/>
<path d="M76.7726 183.738C75.6324 184.118 74.6007 185.269 74.3618 186.431C73.8949 188.668 76.1319 190.905 78.369 190.438C80.0522 190.091 81.3553 188.375 81.1924 186.757C81.0729 185.617 80.215 184.444 79.1291 183.912C78.4667 183.597 77.4459 183.521 76.7726 183.738Z" fill="#F8974E"/>
<path d="M90.6726 183.738C89.5324 184.118 88.5008 185.269 88.2619 186.431C87.7949 188.668 90.0319 190.905 92.269 190.438C93.9522 190.091 95.2553 188.375 95.0924 186.757C94.973 185.617 94.1151 184.444 93.0291 183.912C92.3667 183.597 91.3459 183.521 90.6726 183.738Z" fill="#F8974E"/>
<path d="M104.573 183.738C103.432 184.118 102.401 185.269 102.162 186.431C101.695 188.668 103.932 190.905 106.169 190.438C107.852 190.091 109.155 188.375 108.992 186.757C108.873 185.617 108.015 184.444 106.929 183.912C106.267 183.597 105.246 183.521 104.573 183.738Z" fill="#F8974E"/>
<path d="M118.473 183.738C117.332 184.118 116.301 185.269 116.062 186.431C115.595 188.668 117.832 190.905 120.069 190.438C121.752 190.091 123.055 188.375 122.892 186.757C122.773 185.617 121.915 184.444 120.829 183.912C120.167 183.597 119.146 183.521 118.473 183.738Z" fill="#F8974E"/>
<path d="M132.373 183.738C131.232 184.118 130.201 185.269 129.962 186.431C129.495 188.668 131.732 190.905 133.969 190.438C135.652 190.091 136.955 188.375 136.792 186.757C136.673 185.617 135.815 184.444 134.729 183.912C134.067 183.597 133.046 183.521 132.373 183.738Z" fill="#F8974E"/>
<path d="M146.273 183.738C145.132 184.118 144.101 185.269 143.862 186.431C143.395 188.668 145.632 190.905 147.869 190.438C149.552 190.091 150.855 188.375 150.692 186.757C150.573 185.617 149.715 184.444 148.629 183.912C147.967 183.597 146.946 183.521 146.273 183.738Z" fill="#F8974E"/>
<path d="M160.173 183.738C159.032 184.118 158.001 185.269 157.762 186.431C157.295 188.668 159.532 190.905 161.769 190.438C163.452 190.091 164.755 188.375 164.592 186.757C164.473 185.617 163.615 184.444 162.529 183.912C161.867 183.597 160.846 183.521 160.173 183.738Z" fill="#F8974E"/>
<path d="M174.073 183.738C172.932 184.118 171.901 185.269 171.662 186.431C171.195 188.668 173.432 190.905 175.669 190.438C177.352 190.091 178.655 188.375 178.492 186.757C178.373 185.617 177.515 184.444 176.429 183.912C175.767 183.597 174.746 183.521 174.073 183.738Z" fill="#F8974E"/>
</svg>
