<svg width="156" height="139" viewBox="0 0 156 139" fill="none" xmlns="http://www.w3.org/2000/svg">
<path d="M6.6997 3.63794C5.42067 4.01801 4.26346 5.16911 3.99547 6.33106C3.47168 8.56809 5.98101 10.8051 8.49035 10.3382C10.3784 9.99067 11.8402 8.27489 11.6575 6.65684C11.5235 5.51661 10.5612 4.34379 9.34303 3.81169C8.59998 3.49676 7.45494 3.42075 6.6997 3.63794Z" fill="#F8974E"/>
<path d="M22.2917 3.6379C20.4523 4.18087 19.2098 5.98352 19.5874 7.56899C19.892 8.86126 21.2441 10.0666 22.6815 10.3381C25.0446 10.7834 27.4931 8.7961 27.2494 6.6568C27.1155 5.51657 26.1531 4.34376 24.935 3.81165C24.192 3.49673 23.0469 3.42071 22.2917 3.6379Z" fill="#F8974E"/>
<path d="M37.8837 3.63794C36.6046 4.01801 35.4474 5.16911 35.1794 6.33106C34.6556 8.56809 37.165 10.8051 39.6743 10.3382C41.5624 9.99067 43.0241 8.27489 42.8414 6.65684C42.7074 5.51661 41.7451 4.34379 40.527 3.81169C39.7839 3.49676 38.6389 3.42075 37.8837 3.63794Z" fill="#F8974E"/>
<path d="M53.4756 3.63794C52.1966 4.01801 51.0394 5.16911 50.7714 6.33106C50.2476 8.56809 52.757 10.8051 55.2663 10.3382C57.1544 9.99067 58.6161 8.27489 58.4334 6.65684C58.2994 5.51661 57.3371 4.34379 56.119 3.81169C55.3759 3.49676 54.2309 3.42075 53.4756 3.63794Z" fill="#F8974E"/>
<path d="M69.0677 3.63794C67.7887 4.01801 66.6314 5.16911 66.3635 6.33106C65.8397 8.56809 68.349 10.8051 70.8583 10.3382C72.7464 9.99067 74.2082 8.27489 74.0255 6.65684C73.8915 5.51661 72.9291 4.34379 71.711 3.81169C70.968 3.49676 69.8229 3.42075 69.0677 3.63794Z" fill="#F8974E"/>
<path d="M84.6597 3.63794C83.3806 4.01801 82.2234 5.16911 81.9554 6.33106C81.4316 8.56809 83.941 10.8051 86.4503 10.3382C88.3384 9.99067 89.8002 8.27489 89.6174 6.65684C89.4834 5.51661 88.5211 4.34379 87.303 3.81169C86.5599 3.49676 85.4149 3.42075 84.6597 3.63794Z" fill="#F8974E"/>
<path d="M100.252 3.63794C98.9726 4.01801 97.8154 5.16911 97.5474 6.33106C97.0236 8.56809 99.5329 10.8051 102.042 10.3382C103.93 9.99067 105.392 8.27489 105.209 6.65684C105.075 5.51661 104.113 4.34379 102.895 3.81169C102.152 3.49676 101.007 3.42075 100.252 3.63794Z" fill="#F8974E"/>
<path d="M115.844 3.63794C114.565 4.01801 113.407 5.16911 113.139 6.33106C112.616 8.56809 115.125 10.8051 117.634 10.3382C119.522 9.99067 120.984 8.27489 120.801 6.65684C120.667 5.51661 119.705 4.34379 118.487 3.81169C117.744 3.49676 116.599 3.42075 115.844 3.63794Z" fill="#F8974E"/>
<path d="M131.436 3.63791C130.157 4.01799 128.999 5.16908 128.731 6.33104C128.427 7.60158 129.121 8.98072 130.461 9.79518C131.765 10.5988 133.251 10.6096 134.566 9.82775C136.722 8.54635 137.015 6.15729 135.212 4.56096C134.176 3.62705 132.69 3.26869 131.436 3.63791Z" fill="#F8974E"/>
<path d="M147.028 3.63791C145.749 4.01799 144.591 5.16908 144.323 6.33104C144.019 7.60158 144.713 8.98072 146.053 9.79518C147.357 10.5988 148.843 10.6096 150.158 9.82775C152.314 8.54635 152.607 6.15729 150.804 4.56096C149.768 3.62705 148.282 3.26869 147.028 3.63791Z" fill="#F8974E"/>
<path d="M6.6997 17.538C5.42067 17.918 4.26346 19.0691 3.99547 20.2311C3.47168 22.4681 5.98101 24.7051 8.49035 24.2382C10.3784 23.8907 11.8402 22.1749 11.6575 20.5569C11.5235 19.4166 10.5612 18.2438 9.34303 17.7117C8.59998 17.3968 7.45494 17.3208 6.6997 17.538Z" fill="#F8974E"/>
<path d="M22.2917 17.5379C20.4523 18.0809 19.2098 19.8835 19.5874 21.469C19.892 22.7613 21.2441 23.9667 22.6815 24.2382C25.0446 24.6834 27.4931 22.6961 27.2494 20.5568C27.1155 19.4166 26.1531 18.2438 24.935 17.7117C24.192 17.3968 23.0469 17.3207 22.2917 17.5379Z" fill="#F8974E"/>
<path d="M37.8837 17.538C36.6046 17.918 35.4474 19.0691 35.1794 20.2311C34.6556 22.4681 37.165 24.7051 39.6743 24.2382C41.5624 23.8907 43.0241 22.1749 42.8414 20.5569C42.7074 19.4166 41.7451 18.2438 40.527 17.7117C39.7839 17.3968 38.6389 17.3208 37.8837 17.538Z" fill="#F8974E"/>
<path d="M53.4756 17.538C52.1966 17.918 51.0394 19.0691 50.7714 20.2311C50.2476 22.4681 52.757 24.7051 55.2663 24.2382C57.1544 23.8907 58.6161 22.1749 58.4334 20.5569C58.2994 19.4166 57.3371 18.2438 56.119 17.7117C55.3759 17.3968 54.2309 17.3208 53.4756 17.538Z" fill="#F8974E"/>
<path d="M69.0677 17.538C67.7887 17.918 66.6314 19.0691 66.3635 20.2311C65.8397 22.4681 68.349 24.7051 70.8583 24.2382C72.7464 23.8907 74.2082 22.1749 74.0255 20.5569C73.8915 19.4166 72.9291 18.2438 71.711 17.7117C70.968 17.3968 69.8229 17.3208 69.0677 17.538Z" fill="#F8974E"/>
<path d="M84.6597 17.538C83.3806 17.918 82.2234 19.0691 81.9554 20.2311C81.4316 22.4681 83.941 24.7051 86.4503 24.2382C88.3384 23.8907 89.8002 22.1749 89.6174 20.5569C89.4834 19.4166 88.5211 18.2438 87.303 17.7117C86.5599 17.3968 85.4149 17.3208 84.6597 17.538Z" fill="#F8974E"/>
<path d="M100.252 17.538C98.9726 17.918 97.8154 19.0691 97.5474 20.2311C97.0236 22.4681 99.5329 24.7051 102.042 24.2382C103.93 23.8907 105.392 22.1749 105.209 20.5569C105.075 19.4166 104.113 18.2438 102.895 17.7117C102.152 17.3968 101.007 17.3208 100.252 17.538Z" fill="#F8974E"/>
<path d="M115.844 17.538C114.565 17.918 113.407 19.0691 113.139 20.2311C112.616 22.4681 115.125 24.7051 117.634 24.2382C119.522 23.8907 120.984 22.1749 120.801 20.5569C120.667 19.4166 119.705 18.2438 118.487 17.7117C117.744 17.3968 116.599 17.3208 115.844 17.538Z" fill="#F8974E"/>
<path d="M131.436 17.5379C130.157 17.918 128.999 19.0691 128.731 20.2311C128.427 21.5016 129.121 22.8807 130.461 23.6952C131.765 24.4988 133.251 24.5097 134.566 23.7278C136.722 22.4464 137.015 20.0573 135.212 18.461C134.176 17.5271 132.69 17.1687 131.436 17.5379Z" fill="#F8974E"/>
<path d="M147.028 17.5379C145.749 17.918 144.591 19.0691 144.323 20.2311C144.019 21.5016 144.713 22.8807 146.053 23.6952C147.357 24.4988 148.843 24.5097 150.158 23.7278C152.314 22.4464 152.607 20.0573 150.804 18.461C149.768 17.5271 148.282 17.1687 147.028 17.5379Z" fill="#F8974E"/>
<path d="M6.6997 31.4379C5.42067 31.8179 4.26346 32.969 3.99547 34.131C3.47168 36.368 5.98101 38.605 8.49035 38.1381C10.3784 37.7906 11.8402 36.0748 11.6575 34.4568C11.5235 33.3165 10.5612 32.1437 9.34303 31.6116C8.59998 31.2967 7.45494 31.2207 6.6997 31.4379Z" fill="#F8974E"/>
<path d="M22.2917 31.4379C21.0127 31.8179 19.8554 32.969 19.5874 34.131C19.0637 36.368 21.573 38.605 24.0823 38.1381C25.9704 37.7906 27.4322 36.0748 27.2494 34.4568C27.1155 33.3165 26.1531 32.1437 24.935 31.6116C24.192 31.2967 23.0469 31.2207 22.2917 31.4379Z" fill="#F8974E"/>
<path d="M37.8837 31.4379C36.6046 31.8179 35.4474 32.969 35.1794 34.131C34.6556 36.368 37.165 38.605 39.6743 38.1381C41.5624 37.7906 43.0241 36.0748 42.8414 34.4568C42.7074 33.3165 41.7451 32.1437 40.527 31.6116C39.7839 31.2967 38.6389 31.2207 37.8837 31.4379Z" fill="#F8974E"/>
<path d="M53.4756 31.4379C52.1966 31.8179 51.0394 32.969 50.7714 34.131C50.2476 36.368 52.757 38.605 55.2663 38.1381C57.1544 37.7906 58.6161 36.0748 58.4334 34.4568C58.2994 33.3165 57.3371 32.1437 56.119 31.6116C55.3759 31.2967 54.2309 31.2207 53.4756 31.4379Z" fill="#F8974E"/>
<path d="M69.0677 31.4379C67.7887 31.8179 66.6314 32.969 66.3635 34.131C65.8397 36.368 68.349 38.605 70.8583 38.1381C72.7464 37.7906 74.2082 36.0748 74.0255 34.4568C73.8915 33.3165 72.9291 32.1437 71.711 31.6116C70.968 31.2967 69.8229 31.2207 69.0677 31.4379Z" fill="#F8974E"/>
<path d="M84.6597 31.4379C83.3806 31.8179 82.2234 32.969 81.9554 34.131C81.4316 36.368 83.941 38.605 86.4503 38.1381C88.3384 37.7906 89.8002 36.0748 89.6174 34.4568C89.4834 33.3165 88.5211 32.1437 87.303 31.6116C86.5599 31.2967 85.4149 31.2207 84.6597 31.4379Z" fill="#F8974E"/>
<path d="M100.252 31.4379C98.9726 31.8179 97.8154 32.969 97.5474 34.131C97.0236 36.368 99.5329 38.605 102.042 38.1381C103.93 37.7906 105.392 36.0748 105.209 34.4568C105.075 33.3165 104.113 32.1437 102.895 31.6116C102.152 31.2967 101.007 31.2207 100.252 31.4379Z" fill="#F8974E"/>
<path d="M115.844 31.4379C114.565 31.8179 113.407 32.969 113.139 34.131C112.616 36.368 115.125 38.605 117.634 38.1381C119.522 37.7906 120.984 36.0748 120.801 34.4568C120.667 33.3165 119.705 32.1437 118.487 31.6116C117.744 31.2967 116.599 31.2207 115.844 31.4379Z" fill="#F8974E"/>
<path d="M131.436 31.4379C130.157 31.8179 128.999 32.969 128.731 34.131C128.208 36.368 130.717 38.605 133.226 38.1381C135.114 37.7906 136.576 36.0748 136.393 34.4568C136.259 33.3165 135.297 32.1437 134.079 31.6116C133.336 31.2967 132.191 31.2207 131.436 31.4379Z" fill="#F8974E"/>
<path d="M147.028 31.4379C145.749 31.8179 144.591 32.969 144.323 34.131C143.8 36.368 146.309 38.605 148.818 38.1381C150.706 37.7906 152.168 36.0748 151.985 34.4568C151.851 33.3165 150.889 32.1437 149.671 31.6116C148.928 31.2967 147.783 31.2207 147.028 31.4379Z" fill="#F8974E"/>
<path d="M6.6997 45.3379C5.42067 45.718 4.26346 46.8691 3.99547 48.031C3.47168 50.268 5.98101 52.5051 8.49035 52.0381C10.3784 51.6906 11.8402 49.9748 11.6575 48.3568C11.5235 47.2166 10.5612 46.0437 9.34303 45.5116C8.59998 45.1967 7.45494 45.1207 6.6997 45.3379Z" fill="#F8974E"/>
<path d="M22.2917 45.3379C21.0127 45.718 19.8554 46.8691 19.5874 48.031C19.0637 50.268 21.573 52.5051 24.0823 52.0381C25.9704 51.6906 27.4322 49.9748 27.2494 48.3568C27.1155 47.2166 26.1531 46.0437 24.935 45.5116C24.192 45.1967 23.0469 45.1207 22.2917 45.3379Z" fill="#F8974E"/>
<path d="M37.8837 45.3379C36.6046 45.718 35.4474 46.8691 35.1794 48.031C34.6556 50.268 37.165 52.5051 39.6743 52.0381C41.5624 51.6906 43.0241 49.9748 42.8414 48.3568C42.7074 47.2166 41.7451 46.0437 40.527 45.5116C39.7839 45.1967 38.6389 45.1207 37.8837 45.3379Z" fill="#F8974E"/>
<path d="M53.4756 45.3379C52.1966 45.718 51.0394 46.8691 50.7714 48.031C50.2476 50.268 52.757 52.5051 55.2663 52.0381C57.1544 51.6906 58.6161 49.9748 58.4334 48.3568C58.2994 47.2166 57.3371 46.0437 56.119 45.5116C55.3759 45.1967 54.2309 45.1207 53.4756 45.3379Z" fill="#F8974E"/>
<path d="M69.0677 45.3379C67.7887 45.718 66.6314 46.8691 66.3635 48.031C65.8397 50.268 68.349 52.5051 70.8583 52.0381C72.7464 51.6906 74.2082 49.9748 74.0255 48.3568C73.8915 47.2166 72.9291 46.0437 71.711 45.5116C70.968 45.1967 69.8229 45.1207 69.0677 45.3379Z" fill="#F8974E"/>
<path d="M84.6597 45.3379C83.3806 45.718 82.2234 46.8691 81.9554 48.031C81.4316 50.268 83.941 52.5051 86.4503 52.0381C88.3384 51.6906 89.8002 49.9748 89.6174 48.3568C89.4834 47.2166 88.5211 46.0437 87.303 45.5116C86.5599 45.1967 85.4149 45.1207 84.6597 45.3379Z" fill="#F8974E"/>
<path d="M100.252 45.3379C98.9726 45.718 97.8154 46.8691 97.5474 48.031C97.0236 50.268 99.5329 52.5051 102.042 52.0381C103.93 51.6906 105.392 49.9748 105.209 48.3568C105.075 47.2166 104.113 46.0437 102.895 45.5116C102.152 45.1967 101.007 45.1207 100.252 45.3379Z" fill="#F8974E"/>
<path d="M115.844 45.3379C114.565 45.718 113.407 46.8691 113.139 48.031C112.616 50.268 115.125 52.5051 117.634 52.0381C119.522 51.6906 120.984 49.9748 120.801 48.3568C120.667 47.2166 119.705 46.0437 118.487 45.5116C117.744 45.1967 116.599 45.1207 115.844 45.3379Z" fill="#F8974E"/>
<path d="M131.436 45.3379C130.157 45.718 128.999 46.8691 128.731 48.031C128.208 50.268 130.717 52.5051 133.226 52.0381C135.114 51.6906 136.576 49.9748 136.393 48.3568C136.259 47.2166 135.297 46.0437 134.079 45.5116C133.336 45.1967 132.191 45.1207 131.436 45.3379Z" fill="#F8974E"/>
<path d="M147.028 45.3379C145.749 45.718 144.591 46.8691 144.323 48.031C143.8 50.268 146.309 52.5051 148.818 52.0381C150.706 51.6906 152.168 49.9748 151.985 48.3568C151.851 47.2166 150.889 46.0437 149.671 45.5116C148.928 45.1967 147.783 45.1207 147.028 45.3379Z" fill="#F8974E"/>
<path d="M6.6997 59.2379C5.42067 59.618 4.26346 60.7691 3.99547 61.931C3.47168 64.1681 5.98101 66.4051 8.49035 65.9381C10.3784 65.5906 11.8402 63.8749 11.6575 62.2568C11.5235 61.1166 10.5612 59.9438 9.34303 59.4117C8.59998 59.0967 7.45494 59.0207 6.6997 59.2379Z" fill="#F8974E"/>
<path d="M22.2917 59.2379C21.0127 59.618 19.8554 60.7691 19.5874 61.931C19.0637 64.1681 21.573 66.4051 24.0823 65.9381C25.9704 65.5906 27.4322 63.8749 27.2494 62.2568C27.1155 61.1166 26.1531 59.9438 24.935 59.4117C24.192 59.0967 23.0469 59.0207 22.2917 59.2379Z" fill="#F8974E"/>
<path d="M37.8837 59.2379C36.6046 59.618 35.4474 60.7691 35.1794 61.931C34.6556 64.1681 37.165 66.4051 39.6743 65.9381C41.5624 65.5906 43.0241 63.8749 42.8414 62.2568C42.7074 61.1166 41.7451 59.9438 40.527 59.4117C39.7839 59.0967 38.6389 59.0207 37.8837 59.2379Z" fill="#F8974E"/>
<path d="M53.4756 59.2379C52.1966 59.618 51.0394 60.7691 50.7714 61.931C50.2476 64.1681 52.757 66.4051 55.2663 65.9381C57.1544 65.5906 58.6161 63.8749 58.4334 62.2568C58.2994 61.1166 57.3371 59.9438 56.119 59.4117C55.3759 59.0967 54.2309 59.0207 53.4756 59.2379Z" fill="#F8974E"/>
<path d="M69.0677 59.2379C67.7887 59.618 66.6314 60.7691 66.3635 61.931C65.8397 64.1681 68.349 66.4051 70.8583 65.9381C72.7464 65.5906 74.2082 63.8749 74.0255 62.2568C73.8915 61.1166 72.9291 59.9438 71.711 59.4117C70.968 59.0967 69.8229 59.0207 69.0677 59.2379Z" fill="#F8974E"/>
<path d="M84.6597 59.2379C83.3806 59.618 82.2234 60.7691 81.9554 61.931C81.4316 64.1681 83.941 66.4051 86.4503 65.9381C88.3384 65.5906 89.8002 63.8749 89.6174 62.2568C89.4834 61.1166 88.5211 59.9438 87.303 59.4117C86.5599 59.0967 85.4149 59.0207 84.6597 59.2379Z" fill="#F8974E"/>
<path d="M100.252 59.2379C98.9726 59.618 97.8154 60.7691 97.5474 61.931C97.0236 64.1681 99.5329 66.4051 102.042 65.9381C103.93 65.5906 105.392 63.8749 105.209 62.2568C105.075 61.1166 104.113 59.9438 102.895 59.4117C102.152 59.0967 101.007 59.0207 100.252 59.2379Z" fill="#F8974E"/>
<path d="M115.844 59.2379C114.565 59.618 113.407 60.7691 113.139 61.931C112.616 64.1681 115.125 66.4051 117.634 65.9381C119.522 65.5906 120.984 63.8749 120.801 62.2568C120.667 61.1166 119.705 59.9438 118.487 59.4117C117.744 59.0967 116.599 59.0207 115.844 59.2379Z" fill="#F8974E"/>
<path d="M131.436 59.2379C130.157 59.618 128.999 60.7691 128.731 61.931C128.208 64.1681 130.717 66.4051 133.226 65.9381C135.114 65.5906 136.576 63.8749 136.393 62.2568C136.259 61.1166 135.297 59.9438 134.079 59.4117C133.336 59.0967 132.191 59.0207 131.436 59.2379Z" fill="#F8974E"/>
<path d="M147.028 59.2379C145.749 59.618 144.591 60.7691 144.323 61.931C143.8 64.1681 146.309 66.4051 148.818 65.9381C150.706 65.5906 152.168 63.8749 151.985 62.2568C151.851 61.1166 150.889 59.9438 149.671 59.4117C148.928 59.0967 147.783 59.0207 147.028 59.2379Z" fill="#F8974E"/>
<path d="M6.6997 73.1379C5.42067 73.518 4.26346 74.6691 3.99547 75.8311C3.47168 78.0681 5.98101 80.3051 8.49035 79.8382C10.3784 79.4907 11.8402 77.7749 11.6575 76.1568C11.5235 75.0166 10.5612 73.8438 9.34303 73.3117C8.59998 72.9967 7.45494 72.9207 6.6997 73.1379Z" fill="#F8974E"/>
<path d="M22.2917 73.1379C21.0127 73.518 19.8554 74.6691 19.5874 75.8311C19.0637 78.0681 21.573 80.3051 24.0823 79.8382C25.9704 79.4907 27.4322 77.7749 27.2494 76.1568C27.1155 75.0166 26.1531 73.8438 24.935 73.3117C24.192 72.9967 23.0469 72.9207 22.2917 73.1379Z" fill="#F8974E"/>
<path d="M37.8837 73.1379C36.6046 73.518 35.4474 74.6691 35.1794 75.8311C34.6556 78.0681 37.165 80.3051 39.6743 79.8382C41.5624 79.4907 43.0241 77.7749 42.8414 76.1568C42.7074 75.0166 41.7451 73.8438 40.527 73.3117C39.7839 72.9967 38.6389 72.9207 37.8837 73.1379Z" fill="#F8974E"/>
<path d="M53.4756 73.1379C52.1966 73.518 51.0394 74.6691 50.7714 75.8311C50.2476 78.0681 52.757 80.3051 55.2663 79.8382C57.1544 79.4907 58.6161 77.7749 58.4334 76.1568C58.2994 75.0166 57.3371 73.8438 56.119 73.3117C55.3759 72.9967 54.2309 72.9207 53.4756 73.1379Z" fill="#F8974E"/>
<path d="M69.0677 73.1379C67.7887 73.518 66.6314 74.6691 66.3635 75.8311C65.8397 78.0681 68.349 80.3051 70.8583 79.8382C72.7464 79.4907 74.2082 77.7749 74.0255 76.1568C73.8915 75.0166 72.9291 73.8438 71.711 73.3117C70.968 72.9967 69.8229 72.9207 69.0677 73.1379Z" fill="#F8974E"/>
<path d="M84.6597 73.1379C83.3806 73.518 82.2234 74.6691 81.9554 75.8311C81.4316 78.0681 83.941 80.3051 86.4503 79.8382C88.3384 79.4907 89.8002 77.7749 89.6174 76.1568C89.4834 75.0166 88.5211 73.8438 87.303 73.3117C86.5599 72.9967 85.4149 72.9207 84.6597 73.1379Z" fill="#F8974E"/>
<path d="M100.252 73.1379C98.9726 73.518 97.8154 74.6691 97.5474 75.8311C97.0236 78.0681 99.5329 80.3051 102.042 79.8382C103.93 79.4907 105.392 77.7749 105.209 76.1568C105.075 75.0166 104.113 73.8438 102.895 73.3117C102.152 72.9967 101.007 72.9207 100.252 73.1379Z" fill="#F8974E"/>
<path d="M115.844 73.1379C114.565 73.518 113.407 74.6691 113.139 75.8311C112.616 78.0681 115.125 80.3051 117.634 79.8382C119.522 79.4907 120.984 77.7749 120.801 76.1568C120.667 75.0166 119.705 73.8438 118.487 73.3117C117.744 72.9967 116.599 72.9207 115.844 73.1379Z" fill="#F8974E"/>
<path d="M131.436 73.1379C130.157 73.518 128.999 74.6691 128.731 75.8311C128.208 78.0681 130.717 80.3051 133.226 79.8382C135.114 79.4907 136.576 77.7749 136.393 76.1568C136.259 75.0166 135.297 73.8438 134.079 73.3117C133.336 72.9967 132.191 72.9207 131.436 73.1379Z" fill="#F8974E"/>
<path d="M147.028 73.1379C145.749 73.518 144.591 74.6691 144.323 75.8311C143.8 78.0681 146.309 80.3051 148.818 79.8382C150.706 79.4907 152.168 77.7749 151.985 76.1568C151.851 75.0166 150.889 73.8438 149.671 73.3117C148.928 72.9967 147.783 72.9207 147.028 73.1379Z" fill="#F8974E"/>
<path d="M6.6997 87.038C5.42067 87.418 4.26346 88.5691 3.99547 89.7311C3.47168 91.9681 5.98101 94.2051 8.49035 93.7382C10.3784 93.3907 11.8402 91.6749 11.6575 90.0569C11.5235 88.9166 10.5612 87.7438 9.34303 87.2117C8.59998 86.8968 7.45494 86.8208 6.6997 87.038Z" fill="#F8974E"/>
<path d="M22.2917 87.038C21.0127 87.418 19.8554 88.5691 19.5874 89.7311C19.0637 91.9681 21.573 94.2051 24.0823 93.7382C25.9704 93.3907 27.4322 91.6749 27.2494 90.0569C27.1155 88.9166 26.1531 87.7438 24.935 87.2117C24.192 86.8968 23.0469 86.8208 22.2917 87.038Z" fill="#F8974E"/>
<path d="M37.8837 87.0379C36.6047 87.418 35.4474 88.5691 35.1795 89.7311C34.8749 91.0016 35.5693 92.3807 36.9092 93.1952C38.2126 93.9988 39.6987 94.0097 41.0143 93.2278C43.1704 91.9464 43.4627 89.5573 41.6599 87.961C40.6245 87.0271 39.1384 86.6687 37.8837 87.0379Z" fill="#F8974E"/>
<path d="M53.4757 87.0379C52.1966 87.418 51.0394 88.5691 50.7714 89.7311C50.4669 91.0016 51.1612 92.3807 52.5012 93.1952C53.8046 93.9988 55.2907 94.0097 56.6063 93.2278C58.7623 91.9464 59.0547 89.5573 57.2519 87.961C56.2165 87.0271 54.7303 86.6687 53.4757 87.0379Z" fill="#F8974E"/>
<path d="M69.0677 87.038C67.2283 87.581 65.9858 89.3837 66.3634 90.9691C66.668 92.2614 68.0201 93.4668 69.4697 93.7383C71.8206 94.1835 74.2691 92.1962 74.0254 90.057C73.8914 88.9167 72.9291 87.7439 71.711 87.2118C70.9679 86.8969 69.8229 86.8209 69.0677 87.038Z" fill="#F8974E"/>
<path d="M84.6597 87.038C82.8203 87.581 81.5778 89.3837 81.9554 90.9691C82.26 92.2614 83.6121 93.4668 85.0616 93.7383C87.4126 94.1835 89.8611 92.1962 89.6174 90.057C89.4834 88.9167 88.5211 87.7439 87.303 87.2118C86.5599 86.8969 85.4149 86.8209 84.6597 87.038Z" fill="#F8974E"/>
<path d="M100.252 87.038C98.4123 87.581 97.1698 89.3837 97.5474 90.9691C97.8519 92.2614 99.2041 93.4668 100.654 93.7383C103.005 94.1835 105.453 92.1962 105.209 90.057C105.075 88.9167 104.113 87.7439 102.895 87.2118C102.152 86.8969 101.007 86.8209 100.252 87.038Z" fill="#F8974E"/>
<path d="M115.844 87.038C114.004 87.581 112.762 89.3837 113.139 90.9691C113.444 92.2614 114.796 93.4668 116.246 93.7383C118.597 94.1835 121.045 92.1962 120.801 90.057C120.667 88.9167 119.705 87.7439 118.487 87.2118C117.744 86.8969 116.599 86.8209 115.844 87.038Z" fill="#F8974E"/>
<path d="M131.436 87.038C130.157 87.418 128.999 88.5691 128.731 89.7311C128.208 91.9681 130.717 94.2051 133.226 93.7382C135.114 93.3907 136.576 91.6749 136.393 90.0569C136.259 88.9166 135.297 87.7438 134.079 87.2117C133.336 86.8968 132.191 86.8208 131.436 87.038Z" fill="#F8974E"/>
<path d="M147.028 87.038C145.749 87.418 144.591 88.5691 144.323 89.7311C143.8 91.9681 146.309 94.2051 148.818 93.7382C150.706 93.3907 152.168 91.6749 151.985 90.0569C151.851 88.9166 150.889 87.7438 149.671 87.2117C148.928 86.8968 147.783 86.8208 147.028 87.038Z" fill="#F8974E"/>
<path d="M6.6997 100.938C5.42067 101.318 4.26346 102.469 3.99547 103.631C3.47168 105.868 5.98101 108.105 8.49035 107.638C10.3784 107.291 11.8402 105.575 11.6575 103.957C11.5235 102.817 10.5612 101.644 9.34303 101.112C8.59998 100.797 7.45494 100.721 6.6997 100.938Z" fill="#F8974E"/>
<path d="M22.2917 100.938C21.0127 101.318 19.8554 102.469 19.5874 103.631C19.0637 105.868 21.573 108.105 24.0823 107.638C25.9704 107.291 27.4322 105.575 27.2494 103.957C27.1155 102.817 26.1531 101.644 24.935 101.112C24.192 100.797 23.0469 100.721 22.2917 100.938Z" fill="#F8974E"/>
<path d="M37.8837 100.938C36.6047 101.318 35.4474 102.469 35.1795 103.631C34.8749 104.902 35.5693 106.281 36.9092 107.095C38.2126 107.899 39.6987 107.91 41.0143 107.128C43.1704 105.846 43.4627 103.457 41.6599 101.861C40.6245 100.927 39.1384 100.569 37.8837 100.938Z" fill="#F8974E"/>
<path d="M53.4757 100.938C52.1966 101.318 51.0394 102.469 50.7714 103.631C50.4669 104.902 51.1612 106.281 52.5012 107.095C53.8046 107.899 55.2907 107.91 56.6063 107.128C58.7623 105.846 59.0547 103.457 57.2519 101.861C56.2165 100.927 54.7303 100.569 53.4757 100.938Z" fill="#F8974E"/>
<path d="M69.0677 100.938C67.2283 101.481 65.9858 103.284 66.3634 104.869C66.668 106.161 68.0201 107.367 69.4697 107.638C71.8206 108.083 74.2691 106.096 74.0254 103.957C73.8914 102.817 72.9291 101.644 71.711 101.112C70.9679 100.797 69.8229 100.721 69.0677 100.938Z" fill="#F8974E"/>
<path d="M84.6597 100.938C82.8203 101.481 81.5778 103.284 81.9554 104.869C82.26 106.161 83.6121 107.367 85.0616 107.638C87.4126 108.083 89.8611 106.096 89.6174 103.957C89.4834 102.817 88.5211 101.644 87.303 101.112C86.5599 100.797 85.4149 100.721 84.6597 100.938Z" fill="#F8974E"/>
<path d="M100.252 100.938C98.4123 101.481 97.1698 103.284 97.5474 104.869C97.8519 106.161 99.2041 107.367 100.654 107.638C103.005 108.083 105.453 106.096 105.209 103.957C105.075 102.817 104.113 101.644 102.895 101.112C102.152 100.797 101.007 100.721 100.252 100.938Z" fill="#F8974E"/>
<path d="M115.844 100.938C114.004 101.481 112.762 103.284 113.139 104.869C113.444 106.161 114.796 107.367 116.246 107.638C118.597 108.083 121.045 106.096 120.801 103.957C120.667 102.817 119.705 101.644 118.487 101.112C117.744 100.797 116.599 100.721 115.844 100.938Z" fill="#F8974E"/>
<path d="M131.436 100.938C130.157 101.318 128.999 102.469 128.731 103.631C128.208 105.868 130.717 108.105 133.226 107.638C135.114 107.291 136.576 105.575 136.393 103.957C136.259 102.817 135.297 101.644 134.079 101.112C133.336 100.797 132.191 100.721 131.436 100.938Z" fill="#F8974E"/>
<path d="M147.028 100.938C145.749 101.318 144.591 102.469 144.323 103.631C143.8 105.868 146.309 108.105 148.818 107.638C150.706 107.291 152.168 105.575 151.985 103.957C151.851 102.817 150.889 101.644 149.671 101.112C148.928 100.797 147.783 100.721 147.028 100.938Z" fill="#F8974E"/>
<path d="M6.6997 114.838C5.42067 115.218 4.26346 116.369 3.99547 117.531C3.47168 119.768 5.98101 122.005 8.49035 121.538C10.3784 121.191 11.8402 119.475 11.6575 117.857C11.5235 116.717 10.5612 115.544 9.34303 115.012C8.59998 114.697 7.45494 114.621 6.6997 114.838Z" fill="#F8974E"/>
<path d="M22.2917 114.838C21.0127 115.218 19.8554 116.369 19.5874 117.531C19.0637 119.768 21.573 122.005 24.0823 121.538C25.9704 121.191 27.4322 119.475 27.2494 117.857C27.1155 116.717 26.1531 115.544 24.935 115.012C24.192 114.697 23.0469 114.621 22.2917 114.838Z" fill="#F8974E"/>
<path d="M37.8837 114.838C36.6047 115.218 35.4474 116.369 35.1795 117.531C34.8749 118.802 35.5693 120.181 36.9092 120.995C38.2126 121.799 39.6987 121.81 41.0143 121.028C43.1704 119.746 43.4627 117.357 41.6599 115.761C40.6245 114.827 39.1384 114.469 37.8837 114.838Z" fill="#F8974E"/>
<path d="M53.4757 114.838C52.1966 115.218 51.0394 116.369 50.7714 117.531C50.4669 118.802 51.1612 120.181 52.5012 120.995C53.8046 121.799 55.2907 121.81 56.6063 121.028C58.7623 119.746 59.0547 117.357 57.2519 115.761C56.2165 114.827 54.7303 114.469 53.4757 114.838Z" fill="#F8974E"/>
<path d="M69.0677 114.838C67.7887 115.218 66.6314 116.369 66.3635 117.531C65.8397 119.768 68.349 122.005 70.8583 121.538C72.7464 121.191 74.2082 119.475 74.0255 117.857C73.8915 116.717 72.9291 115.544 71.711 115.012C70.968 114.697 69.8229 114.621 69.0677 114.838Z" fill="#F8974E"/>
<path d="M84.6597 114.838C83.3806 115.218 82.2234 116.369 81.9554 117.531C81.4316 119.768 83.941 122.005 86.4503 121.538C88.3384 121.191 89.8002 119.475 89.6174 117.857C89.4834 116.717 88.5211 115.544 87.303 115.012C86.5599 114.697 85.4149 114.621 84.6597 114.838Z" fill="#F8974E"/>
<path d="M100.252 114.838C98.9726 115.218 97.8154 116.369 97.5474 117.531C97.0236 119.768 99.5329 122.005 102.042 121.538C103.93 121.191 105.392 119.475 105.209 117.857C105.075 116.717 104.113 115.544 102.895 115.012C102.152 114.697 101.007 114.621 100.252 114.838Z" fill="#F8974E"/>
<path d="M115.844 114.838C114.565 115.218 113.407 116.369 113.139 117.531C112.616 119.768 115.125 122.005 117.634 121.538C119.522 121.191 120.984 119.475 120.801 117.857C120.667 116.717 119.705 115.544 118.487 115.012C117.744 114.697 116.599 114.621 115.844 114.838Z" fill="#F8974E"/>
<path d="M131.436 114.838C130.157 115.218 128.999 116.369 128.731 117.531C128.208 119.768 130.717 122.005 133.226 121.538C135.114 121.191 136.576 119.475 136.393 117.857C136.259 116.717 135.297 115.544 134.079 115.012C133.336 114.697 132.191 114.621 131.436 114.838Z" fill="#F8974E"/>
<path d="M147.028 114.838C145.749 115.218 144.591 116.369 144.323 117.531C143.8 119.768 146.309 122.005 148.818 121.538C150.706 121.191 152.168 119.475 151.985 117.857C151.851 116.717 150.889 115.544 149.671 115.012C148.928 114.697 147.783 114.621 147.028 114.838Z" fill="#F8974E"/>
<path d="M6.6997 128.738C5.42067 129.118 4.26346 130.269 3.99547 131.431C3.47168 133.668 5.98101 135.905 8.49035 135.438C10.3784 135.091 11.8402 133.375 11.6575 131.757C11.5235 130.617 10.5612 129.444 9.34303 128.912C8.59998 128.597 7.45494 128.521 6.6997 128.738Z" fill="#F8974E"/>
<path d="M22.2917 128.738C21.0127 129.118 19.8554 130.269 19.5874 131.431C19.0637 133.668 21.573 135.905 24.0823 135.438C25.9704 135.091 27.4322 133.375 27.2494 131.757C27.1155 130.617 26.1531 129.444 24.935 128.912C24.192 128.597 23.0469 128.521 22.2917 128.738Z" fill="#F8974E"/>
<path d="M37.8837 128.738C36.6046 129.118 35.4474 130.269 35.1794 131.431C34.6556 133.668 37.165 135.905 39.6743 135.438C41.5624 135.091 43.0241 133.375 42.8414 131.757C42.7074 130.617 41.7451 129.444 40.527 128.912C39.7839 128.597 38.6389 128.521 37.8837 128.738Z" fill="#F8974E"/>
<path d="M53.4756 128.738C52.1966 129.118 51.0394 130.269 50.7714 131.431C50.2476 133.668 52.757 135.905 55.2663 135.438C57.1544 135.091 58.6161 133.375 58.4334 131.757C58.2994 130.617 57.3371 129.444 56.119 128.912C55.3759 128.597 54.2309 128.521 53.4756 128.738Z" fill="#F8974E"/>
<path d="M69.0677 128.738C67.7887 129.118 66.6314 130.269 66.3635 131.431C65.8397 133.668 68.349 135.905 70.8583 135.438C72.7464 135.091 74.2082 133.375 74.0255 131.757C73.8915 130.617 72.9291 129.444 71.711 128.912C70.968 128.597 69.8229 128.521 69.0677 128.738Z" fill="#F8974E"/>
<path d="M84.6597 128.738C83.3806 129.118 82.2234 130.269 81.9554 131.431C81.4316 133.668 83.941 135.905 86.4503 135.438C88.3384 135.091 89.8002 133.375 89.6174 131.757C89.4834 130.617 88.5211 129.444 87.303 128.912C86.5599 128.597 85.4149 128.521 84.6597 128.738Z" fill="#F8974E"/>
<path d="M100.252 128.738C98.9726 129.118 97.8154 130.269 97.5474 131.431C97.0236 133.668 99.5329 135.905 102.042 135.438C103.93 135.091 105.392 133.375 105.209 131.757C105.075 130.617 104.113 129.444 102.895 128.912C102.152 128.597 101.007 128.521 100.252 128.738Z" fill="#F8974E"/>
<path d="M115.844 128.738C114.565 129.118 113.407 130.269 113.139 131.431C112.616 133.668 115.125 135.905 117.634 135.438C119.522 135.091 120.984 133.375 120.801 131.757C120.667 130.617 119.705 129.444 118.487 128.912C117.744 128.597 116.599 128.521 115.844 128.738Z" fill="#F8974E"/>
<path d="M131.436 128.738C130.157 129.118 128.999 130.269 128.731 131.431C128.208 133.668 130.717 135.905 133.226 135.438C135.114 135.091 136.576 133.375 136.393 131.757C136.259 130.617 135.297 129.444 134.079 128.912C133.336 128.597 132.191 128.521 131.436 128.738Z" fill="#F8974E"/>
<path d="M147.028 128.738C145.749 129.118 144.591 130.269 144.323 131.431C143.8 133.668 146.309 135.905 148.818 135.438C150.706 135.091 152.168 133.375 151.985 131.757C151.851 130.617 150.889 129.444 149.671 128.912C148.928 128.597 147.783 128.521 147.028 128.738Z" fill="#F8974E"/>
</svg>
