<svg width="373" height="573" viewBox="0 0 373 573" fill="none" xmlns="http://www.w3.org/2000/svg">
<path d="M62.9517 0L106.386 17.9423L124.329 61.377L106.386 104.812L62.9517 122.754L19.517 104.812L1.57471 61.377L19.517 17.9423L62.9517 0Z" stroke="white" stroke-width="2"/>
<path d="M77.1635 457.53L118.022 474.406L134.899 515.265L118.022 556.124L77.1635 573L36.3047 556.124L19.4282 515.265L36.3047 474.406L77.1635 457.53Z" stroke="white" stroke-width="2"/>
<path d="M197.075 160.859L224.7 172.317L236.158 199.942L224.7 227.566L197.075 239.024L169.451 227.566L157.993 199.942L169.451 172.317L197.075 160.859Z" stroke="white" stroke-width="2"/>
<path d="M22.093 326.071L33.3735 330.779L38.0812 342.059L33.3735 353.34L22.093 358.047L10.8124 353.34L6.10474 342.059L10.8124 330.779L22.093 326.071Z" stroke="white" stroke-width="2"/>
<path d="M193.522 376.7L206.668 382.207L212.175 395.353L206.668 408.499L193.522 414.006L180.376 408.499L174.869 395.353L180.376 382.207L193.522 376.7Z" stroke="white" stroke-width="2"/>
<path d="M340.97 255.012L362.287 263.894L371.169 285.212L362.287 306.53L340.97 315.412L319.652 306.53L310.77 285.212L319.652 263.894L340.97 255.012Z" stroke="white" stroke-width="2"/>
</svg>
