<svg aria-hidden="true" style="position: absolute; width: 0; height: 0; overflow: hidden;" version="1.1" xmlns="http://www.w3.org/2000/svg" xmlns:xlink="http://www.w3.org/1999/xlink">
	<defs>
		<symbol id="icon-cart" viewBox="0 0 26 28">
			<path d="M10 24c0 1.094-0.906 2-2 2s-2-0.906-2-2 0.906-2 2-2 2 0.906 2 2zM24 24c0 1.094-0.906 2-2 2s-2-0.906-2-2 0.906-2 2-2 2 0.906 2 2zM26 7v8c0 0.5-0.391 0.938-0.891 1l-16.312 1.906c0.078 0.359 0.203 0.719 0.203 1.094 0 0.359-0.219 0.688-0.375 1h14.375c0.547 0 1 0.453 1 1s-0.453 1-1 1h-16c-0.547 0-1-0.453-1-1 0-0.484 0.703-1.656 0.953-2.141l-2.766-12.859h-3.187c-0.547 0-1-0.453-1-1s0.453-1 1-1h4c1.047 0 1.078 1.25 1.234 2h18.766c0.547 0 1 0.453 1 1z"></path>
		</symbol>
		<symbol id="icon-search" viewBox="0 0 32 32">
			<path d="M31.008 27.231l-7.58-6.447c-0.784-0.705-1.622-1.029-2.299-0.998 1.789-2.096 2.87-4.815 2.87-7.787 0-6.627-5.373-12-12-12s-12 5.373-12 12 5.373 12 12 12c2.972 0 5.691-1.081 7.787-2.87-0.031 0.677 0.293 1.515 0.998 2.299l6.447 7.58c1.104 1.226 2.907 1.33 4.007 0.23s0.997-2.903-0.23-4.007zM12 20c-4.418 0-8-3.582-8-8s3.582-8 8-8 8 3.582 8 8-3.582 8-8 8z"></path>
		</symbol>
		<symbol id="icon-chevron-down" viewBox="0 0 448 448">
			<path d="M420.75 202l-185.5 185.25c-6.25 6.25-16.25 6.25-22.5 0l-185.5-185.25c-6.25-6.25-6.25-16.5 0-22.75l41.5-41.25c6.25-6.25 16.25-6.25 22.5 0l132.75 132.75 132.75-132.75c6.25-6.25 16.25-6.25 22.5 0l41.5 41.25c6.25 6.25 6.25 16.5 0 22.75z"></path>
		</symbol>
		<symbol id="icon-envelope" viewBox="0 0 28 28">
			<path d="M28 11.094v12.406c0 1.375-1.125 2.5-2.5 2.5h-23c-1.375 0-2.5-1.125-2.5-2.5v-12.406c0.469 0.516 1 0.969 1.578 1.359 2.594 1.766 5.219 3.531 7.766 5.391 1.313 0.969 2.938 2.156 4.641 2.156h0.031c1.703 0 3.328-1.188 4.641-2.156 2.547-1.844 5.172-3.625 7.781-5.391 0.562-0.391 1.094-0.844 1.563-1.359zM28 6.5c0 1.75-1.297 3.328-2.672 4.281-2.438 1.687-4.891 3.375-7.313 5.078-1.016 0.703-2.734 2.141-4 2.141h-0.031c-1.266 0-2.984-1.437-4-2.141-2.422-1.703-4.875-3.391-7.297-5.078-1.109-0.75-2.688-2.516-2.688-3.938 0-1.531 0.828-2.844 2.5-2.844h23c1.359 0 2.5 1.125 2.5 2.5z"></path>
		</symbol>
		<symbol id="icon-star" viewBox="0 0 28 26">
			<path d="M12.4979 0.904438L9.08038 7.62704L1.43404 8.70855C0.0628285 8.9015 -0.486703 10.5415 0.507688 11.4809L6.03964 16.7107L4.73123 24.0984C4.49572 25.4338 5.94544 26.4341 7.15964 25.8096L14 22.3213L20.8404 25.8096C22.0546 26.429 23.5043 25.4338 23.2688 24.0984L21.9604 16.7107L27.4923 11.4809C28.4867 10.5415 27.9372 8.9015 26.566 8.70855L18.9196 7.62704L15.5021 0.904438C14.8897 -0.293851 13.1155 -0.309084 12.4979 0.904438Z"/>
		</symbol>
		<symbol id="icon-phone" viewBox="0 0 32 32">
			<path d="M22 20c-2 2-2 4-4 4s-4-2-6-4-4-4-4-6 2-2 4-4-4-8-6-8-6 6-6 6c0 4 4.109 12.109 8 16s12 8 16 8c0 0 6-4 6-6s-6-8-8-6z"></path>
		</symbol>
		<symbol id="icon-heart" viewBox="0 0 32 32">
			<path d="M23.6 2c-3.363 0-6.258 2.736-7.599 5.594-1.342-2.858-4.237-5.594-7.601-5.594-4.637 0-8.4 3.764-8.4 8.401 0 9.433 9.516 11.906 16.001 21.232 6.13-9.268 15.999-12.1 15.999-21.232 0-4.637-3.763-8.401-8.4-8.401z"></path>
		</symbol>
		<symbol id="icon-heart-broken" viewBox="0 0 32 32">
			<path d="M23.6 2c4.637 0 8.4 3.764 8.4 8.401 0 9.132-9.87 11.964-15.999 21.232-6.485-9.326-16.001-11.799-16.001-21.232 0-4.637 3.763-8.401 8.4-8.401 1.886 0 3.625 0.86 5.025 2.12l-2.425 3.88 7 4-4 10 11-12-7-4 1.934-2.901c1.107-0.68 2.35-1.099 3.665-1.099z"></path>
		</symbol>
		<symbol id="icon-funnel" viewBox="0 0 29 25">
			<path d="M27.1199 -3.05176e-05H1.56982C0.395818 -3.05176e-05 -0.19658 1.26296 0.635267 2.00051L10.8202 11.0323V21.0937C10.8202 21.4761 11.0306 21.8345 11.384 22.0538L15.7896 24.7872C16.6588 25.3267 17.8693 24.7799 17.8693 23.8271V11.0323L28.0545 2.00051C28.8846 1.26442 28.2963 -3.05176e-05 27.1199 -3.05176e-05Z" fill="white"/>
		</symbol>
		<symbol id="icon-chevron-right" viewBox="0 0 6 9">
			<path d="M5.84086 4.84958L1.44079 8.85499C1.22858 9.04817 0.884535 9.04817 0.672347 8.85499L0.159153 8.38783C-0.0526955 8.19498 -0.0531033 7.88243 0.158247 7.68913L3.64538 4.49981L0.158247 1.31051C-0.0531033 1.11721 -0.0526955 0.804655 0.159153 0.611807L0.672347 0.144639C0.884558 -0.0485382 1.2286 -0.0485382 1.44079 0.144639L5.84086 4.15003C6.05305 4.34321 6.05305 4.6564 5.84086 4.84958Z"/>
		</symbol>
		<symbol id="icon-cog" viewBox="0 0 24 28">
			<path d="M16 14c0-2.203-1.797-4-4-4s-4 1.797-4 4 1.797 4 4 4 4-1.797 4-4zM24 12.297v3.469c0 0.234-0.187 0.516-0.438 0.562l-2.891 0.438c-0.172 0.5-0.359 0.969-0.609 1.422 0.531 0.766 1.094 1.453 1.672 2.156 0.094 0.109 0.156 0.25 0.156 0.391s-0.047 0.25-0.141 0.359c-0.375 0.5-2.484 2.797-3.016 2.797-0.141 0-0.281-0.063-0.406-0.141l-2.156-1.687c-0.453 0.234-0.938 0.438-1.422 0.594-0.109 0.953-0.203 1.969-0.453 2.906-0.063 0.25-0.281 0.438-0.562 0.438h-3.469c-0.281 0-0.531-0.203-0.562-0.469l-0.438-2.875c-0.484-0.156-0.953-0.344-1.406-0.578l-2.203 1.672c-0.109 0.094-0.25 0.141-0.391 0.141s-0.281-0.063-0.391-0.172c-0.828-0.75-1.922-1.719-2.578-2.625-0.078-0.109-0.109-0.234-0.109-0.359 0-0.141 0.047-0.25 0.125-0.359 0.531-0.719 1.109-1.406 1.641-2.141-0.266-0.5-0.484-1.016-0.641-1.547l-2.859-0.422c-0.266-0.047-0.453-0.297-0.453-0.562v-3.469c0-0.234 0.187-0.516 0.422-0.562l2.906-0.438c0.156-0.5 0.359-0.969 0.609-1.437-0.531-0.75-1.094-1.453-1.672-2.156-0.094-0.109-0.156-0.234-0.156-0.375s0.063-0.25 0.141-0.359c0.375-0.516 2.484-2.797 3.016-2.797 0.141 0 0.281 0.063 0.406 0.156l2.156 1.672c0.453-0.234 0.938-0.438 1.422-0.594 0.109-0.953 0.203-1.969 0.453-2.906 0.063-0.25 0.281-0.438 0.562-0.438h3.469c0.281 0 0.531 0.203 0.562 0.469l0.438 2.875c0.484 0.156 0.953 0.344 1.406 0.578l2.219-1.672c0.094-0.094 0.234-0.141 0.375-0.141s0.281 0.063 0.391 0.156c0.828 0.766 1.922 1.734 2.578 2.656 0.078 0.094 0.109 0.219 0.109 0.344 0 0.141-0.047 0.25-0.125 0.359-0.531 0.719-1.109 1.406-1.641 2.141 0.266 0.5 0.484 1.016 0.641 1.531l2.859 0.438c0.266 0.047 0.453 0.297 0.453 0.562z"></path>
		</symbol>			
		<symbol id="icon-plus" viewBox="0 0 24 24">
			<path d="M5 13h6v6c0 0.552 0.448 1 1 1s1-0.448 1-1v-6h6c0.552 0 1-0.448 1-1s-0.448-1-1-1h-6v-6c0-0.552-0.448-1-1-1s-1 0.448-1 1v6h-6c-0.552 0-1 0.448-1 1s0.448 1 1 1z"></path>
		</symbol>
		<symbol id="icon-minus" viewBox="0 0 24 24">
			<path d="M5 13h14c0.552 0 1-0.448 1-1s-0.448-1-1-1h-14c-0.552 0-1 0.448-1 1s0.448 1 1 1z"></path>
		</symbol>
		<symbol id="icon-user" viewBox="0 0 20 28">
			<path d="M20 21.859c0 2.281-1.5 4.141-3.328 4.141h-13.344c-1.828 0-3.328-1.859-3.328-4.141 0-4.109 1.016-8.859 5.109-8.859 1.266 1.234 2.984 2 4.891 2s3.625-0.766 4.891-2c4.094 0 5.109 4.75 5.109 8.859zM16 8c0 3.313-2.688 6-6 6s-6-2.688-6-6 2.688-6 6-6 6 2.688 6 6z"></path>
		</symbol>
		<symbol id="icon-exit" viewBox="0 0 32 32">
			<path d="M24 20v-4h-10v-4h10v-4l6 6zM22 18v8h-10v6l-12-6v-26h22v10h-2v-8h-16l8 4v18h8v-6z"></path>
		</symbol>
	</defs>
</svg>
